<?xml version="1.0" standalone="no"?>
<!DOCTYPE svg PUBLIC "-//W3C//DTD SVG 20010904//EN"
 "http://www.w3.org/TR/2001/REC-SVG-20010904/DTD/svg10.dtd">
<svg version="1.0" xmlns="http://www.w3.org/2000/svg"
 width="864.000000pt" height="693.000000pt" viewBox="0 0 864.000000 693.000000"
 preserveAspectRatio="xMidYMid meet">

<g transform="translate(0.000000,693.000000) scale(0.100000,-0.100000)"
fill="#000000" stroke="none">
<path d="M2795 5274 c-253 -156 -477 -296 -497 -309 l-38 -25 0 -724 0 -725
28 -19 c15 -11 240 -150 499 -311 l472 -291 1021 0 1021 0 472 291 c260 161
484 300 500 311 l27 19 0 724 0 724 -42 29 c-24 16 -248 155 -499 310 l-456
282 -1024 0 -1024 -1 -460 -285z m-323 -956 c101 -61 317 -194 481 -295 l297
-183 1030 0 1030 0 308 189 c558 343 654 402 657 399 2 -2 6 -213 10 -469 l8
-466 -139 -85 c-77 -47 -300 -185 -498 -307 l-359 -221 -1017 0 -1016 0 -497
306 -497 306 0 117 c0 171 13 821 16 821 2 0 85 -50 186 -112z"/>
<path d="M3430 2487 c-108 -30 -162 -109 -168 -245 -5 -103 10 -159 55 -212
50 -58 99 -80 175 -80 80 0 140 29 185 87 78 104 66 313 -23 397 -57 53 -147
74 -224 53z m102 -128 c29 -16 48 -70 48 -141 0 -107 -47 -164 -114 -138 -41
15 -59 68 -54 163 3 72 6 81 31 103 31 26 57 30 89 13z"/>
<path d="M5615 2493 c-120 -26 -176 -101 -183 -246 -7 -144 32 -233 122 -275
82 -39 230 -26 301 25 23 17 24 22 25 136 l0 118 -112 -3 -113 -3 0 -50 0 -50
38 -3 c33 -3 37 -6 37 -32 0 -30 -15 -40 -56 -40 -64 0 -94 48 -94 149 0 108
24 151 85 151 36 0 60 -17 70 -50 6 -17 15 -20 76 -20 65 0 69 1 69 23 -1 38
-36 103 -72 130 -48 37 -131 54 -193 40z"/>
<path d="M2688 2484 c-5 -4 -8 -123 -8 -265 0 -225 2 -258 16 -263 26 -10 230
-7 283 5 62 13 105 51 121 106 16 53 6 104 -26 136 l-26 26 24 31 c31 42 32
117 2 157 -39 53 -84 66 -239 71 -77 2 -143 1 -147 -4z m250 -137 c16 -13 15
-42 -2 -56 -8 -7 -34 -11 -58 -9 -41 3 -43 5 -46 37 -2 20 2 37 10 42 15 10
77 1 96 -14z m4 -194 c43 -38 12 -76 -59 -71 -48 3 -48 3 -51 40 -3 37 -3 37
40 41 24 2 45 4 47 5 3 1 13 -5 23 -15z"/>
<path d="M3892 2223 l3 -268 68 -3 67 -3 0 91 0 91 28 -3 c23 -3 34 -16 72
-90 l45 -88 73 0 c57 0 72 3 72 15 0 8 -21 57 -46 108 l-47 93 31 30 c77 77
60 218 -31 266 -37 20 -60 23 -190 26 l-147 4 2 -269z m254 126 c18 -15 18
-63 -1 -79 -8 -6 -36 -12 -62 -13 l-48 -2 -3 44 c-5 68 1 75 55 67 25 -3 52
-11 59 -17z"/>
<path d="M4486 2474 c-9 -24 -7 -497 3 -512 5 -9 27 -12 72 -10 l64 3 3 268 2
267 -69 0 c-54 0 -70 -4 -75 -16z"/>
<path d="M4812 2223 l3 -268 70 0 70 0 5 135 5 135 78 -138 78 -137 70 0 69 0
0 270 0 270 -70 0 -70 0 0 -130 c0 -71 -4 -130 -8 -130 -4 0 -41 59 -82 130
l-74 130 -73 0 -73 0 2 -267z"/>
</g>
</svg>
